<?xml version="1.0" encoding="UTF-8"?>
<svg xmlns="http://www.w3.org/2000/svg" width="400" height="300" viewBox="0 0 400 300">
<!-- ModifiedDistributions.jl logo: an original density (Julia green) modified
     into a scaled + shifted density (Julia purple); the dashed arrow is the
     modifier, the red dot the likelihood-weight accent. Sibling design to
     CensoredDistributions.jl's logo. -->
<path fill="#389826" fill-opacity="0.2" d="M 40.37 272.00 L 41.74 272.00 L 43.11 272.00 L 44.49 271.97 L 45.86 271.68 L 47.23 270.42 L 48.61 267.04 L 49.98 260.30 L 51.35 249.40 L 52.73 234.18 L 54.10 215.18 L 55.47 193.42 L 56.85 170.15 L 58.22 146.68 L 59.60 124.16 L 60.97 103.54 L 62.34 85.51 L 63.72 70.48 L 65.09 58.66 L 66.46 50.05 L 67.84 44.53 L 69.21 41.87 L 70.58 41.77 L 71.96 43.91 L 73.33 47.95 L 74.70 53.56 L 76.08 60.44 L 77.45 68.29 L 78.82 76.86 L 80.20 85.93 L 81.57 95.29 L 82.94 104.79 L 84.32 114.29 L 85.69 123.68 L 87.06 132.87 L 88.44 141.79 L 89.81 150.39 L 91.19 158.64 L 92.56 166.49 L 93.93 173.95 L 95.31 181.00 L 96.68 187.65 L 98.05 193.89 L 99.43 199.73 L 100.80 205.20 L 102.17 210.29 L 103.55 215.04 L 104.92 219.45 L 106.29 223.54 L 107.67 227.33 L 109.04 230.85 L 110.41 234.09 L 111.79 237.10 L 113.16 239.87 L 114.53 242.42 L 115.91 244.78 L 117.28 246.95 L 118.65 248.95 L 120.03 250.79 L 121.40 252.49 L 122.77 254.05 L 124.15 255.48 L 125.52 256.80 L 126.90 258.02 L 128.27 259.13 L 129.64 260.16 L 131.02 261.10 L 132.39 261.97 L 133.76 262.76 L 135.14 263.49 L 136.51 264.17 L 137.88 264.78 L 139.26 265.35 L 140.63 265.87 L 142.00 266.35 L 143.38 266.79 L 144.75 267.20 L 146.12 267.57 L 147.50 267.92 L 148.87 268.23 L 150.24 268.52 L 151.62 268.79 L 152.99 269.04 L 154.36 269.26 L 155.74 269.47 L 157.11 269.67 L 158.49 269.84 L 159.86 270.01 L 161.23 270.16 L 162.61 270.29 L 163.98 270.42 L 165.35 270.54 L 166.73 270.65 L 168.10 270.75 L 169.47 270.84 L 170.85 270.93 L 172.22 271.01 L 173.59 271.08 L 174.97 271.15 L 176.34 271.21 L 177.71 271.27 L 179.09 271.32 L 180.46 271.37 L 181.83 271.41 L 183.21 271.45 L 184.58 271.49 L 185.95 271.53 L 187.33 271.56 L 188.70 271.59 L 190.08 271.62 L 191.45 271.65 L 192.82 271.67 L 194.20 271.70 L 195.57 271.72 L 196.94 271.74 L 198.32 271.76 L 199.69 271.77 L 201.06 271.79 L 202.44 271.80 L 203.81 271.82 L 205.18 271.83 L 206.56 271.84 L 207.93 271.85 L 209.30 271.86 L 210.68 271.87 L 212.05 271.88 L 213.42 271.89 L 214.80 271.89 L 216.17 271.90 L 217.54 271.91 L 218.92 271.91 L 220.29 271.92 L 221.66 271.92 L 223.04 271.93 L 224.41 271.93 L 225.79 271.94 L 227.16 271.94 L 228.53 271.95 L 229.91 271.95 L 231.28 271.95 L 232.65 271.96 L 234.03 271.96 L 235.40 271.96 L 236.77 271.96 L 238.15 271.97 L 239.52 271.97 L 240.89 271.97 L 242.27 271.97 L 243.64 271.97 L 245.01 271.98 L 246.39 271.98 L 247.76 271.98 L 249.13 271.98 L 250.51 271.98 L 251.88 271.98 L 253.25 271.98 L 254.63 271.98 L 256.00 271.99 L 257.38 271.99 L 258.75 271.99 L 260.12 271.99 L 261.50 271.99 L 262.87 271.99 L 264.24 271.99 L 265.62 271.99 L 266.99 271.99 L 268.36 271.99 L 269.74 271.99 L 271.11 271.99 L 272.48 271.99 L 273.86 271.99 L 275.23 271.99 L 276.60 271.99 L 277.98 271.99 L 279.35 271.99 L 280.72 271.99 L 282.10 272.00 L 283.47 272.00 L 284.84 272.00 L 286.22 272.00 L 287.59 272.00 L 288.97 272.00 L 290.34 272.00 L 291.71 272.00 L 293.09 272.00 L 294.46 272.00 L 295.83 272.00 L 297.21 272.00 L 298.58 272.00 L 299.95 272.00 L 301.33 272.00 L 302.70 272.00 L 304.07 272.00 L 305.45 272.00 L 306.82 272.00 L 308.19 272.00 L 309.57 272.00 L 310.94 272.00 L 312.31 272.00 L 313.69 272.00 L 315.06 272.00 L 316.43 272.00 L 317.81 272.00 L 319.18 272.00 L 320.56 272.00 L 321.93 272.00 L 323.30 272.00 L 324.68 272.00 L 326.05 272.00 L 327.42 272.00 L 328.80 272.00 L 330.17 272.00 L 331.54 272.00 L 332.92 272.00 L 334.29 272.00 L 335.66 272.00 L 337.04 272.00 L 338.41 272.00 L 339.78 272.00 L 341.16 272.00 L 342.53 272.00 L 343.90 272.00 L 345.28 272.00 L 346.65 272.00 L 348.02 272.00 L 349.40 272.00 L 350.77 272.00 L 352.14 272.00 L 353.52 272.00 L 354.89 272.00 L 356.27 272.00 L 357.64 272.00 L 359.01 272.00 L 360.39 272.00 L 361.76 272.00 L 363.13 272.00 L 364.51 272.00 L 365.88 272.00 L 367.25 272.00 L 368.63 272.00 L 370.00 272.00 L 370.00 272.00 L 40.37 272.00 Z"/>
<path fill="none" stroke="#389826" stroke-width="3" d="M 40.37 272.00 L 41.74 272.00 L 43.11 272.00 L 44.49 271.97 L 45.86 271.68 L 47.23 270.42 L 48.61 267.04 L 49.98 260.30 L 51.35 249.40 L 52.73 234.18 L 54.10 215.18 L 55.47 193.42 L 56.85 170.15 L 58.22 146.68 L 59.60 124.16 L 60.97 103.54 L 62.34 85.51 L 63.72 70.48 L 65.09 58.66 L 66.46 50.05 L 67.84 44.53 L 69.21 41.87 L 70.58 41.77 L 71.96 43.91 L 73.33 47.95 L 74.70 53.56 L 76.08 60.44 L 77.45 68.29 L 78.82 76.86 L 80.20 85.93 L 81.57 95.29 L 82.94 104.79 L 84.32 114.29 L 85.69 123.68 L 87.06 132.87 L 88.44 141.79 L 89.81 150.39 L 91.19 158.64 L 92.56 166.49 L 93.93 173.95 L 95.31 181.00 L 96.68 187.65 L 98.05 193.89 L 99.43 199.73 L 100.80 205.20 L 102.17 210.29 L 103.55 215.04 L 104.92 219.45 L 106.29 223.54 L 107.67 227.33 L 109.04 230.85 L 110.41 234.09 L 111.79 237.10 L 113.16 239.87 L 114.53 242.42 L 115.91 244.78 L 117.28 246.95 L 118.65 248.95 L 120.03 250.79 L 121.40 252.49 L 122.77 254.05 L 124.15 255.48 L 125.52 256.80 L 126.90 258.02 L 128.27 259.13 L 129.64 260.16 L 131.02 261.10 L 132.39 261.97 L 133.76 262.76 L 135.14 263.49 L 136.51 264.17 L 137.88 264.78 L 139.26 265.35 L 140.63 265.87 L 142.00 266.35 L 143.38 266.79 L 144.75 267.20 L 146.12 267.57 L 147.50 267.92 L 148.87 268.23 L 150.24 268.52 L 151.62 268.79 L 152.99 269.04 L 154.36 269.26 L 155.74 269.47 L 157.11 269.67 L 158.49 269.84 L 159.86 270.01 L 161.23 270.16 L 162.61 270.29 L 163.98 270.42 L 165.35 270.54 L 166.73 270.65 L 168.10 270.75 L 169.47 270.84 L 170.85 270.93 L 172.22 271.01 L 173.59 271.08 L 174.97 271.15 L 176.34 271.21 L 177.71 271.27 L 179.09 271.32 L 180.46 271.37 L 181.83 271.41 L 183.21 271.45 L 184.58 271.49 L 185.95 271.53 L 187.33 271.56 L 188.70 271.59 L 190.08 271.62 L 191.45 271.65 L 192.82 271.67 L 194.20 271.70 L 195.57 271.72 L 196.94 271.74 L 198.32 271.76 L 199.69 271.77 L 201.06 271.79 L 202.44 271.80 L 203.81 271.82 L 205.18 271.83 L 206.56 271.84 L 207.93 271.85 L 209.30 271.86 L 210.68 271.87 L 212.05 271.88 L 213.42 271.89 L 214.80 271.89 L 216.17 271.90 L 217.54 271.91 L 218.92 271.91 L 220.29 271.92 L 221.66 271.92 L 223.04 271.93 L 224.41 271.93 L 225.79 271.94 L 227.16 271.94 L 228.53 271.95 L 229.91 271.95 L 231.28 271.95 L 232.65 271.96 L 234.03 271.96 L 235.40 271.96 L 236.77 271.96 L 238.15 271.97 L 239.52 271.97 L 240.89 271.97 L 242.27 271.97 L 243.64 271.97 L 245.01 271.98 L 246.39 271.98 L 247.76 271.98 L 249.13 271.98 L 250.51 271.98 L 251.88 271.98 L 253.25 271.98 L 254.63 271.98 L 256.00 271.99 L 257.38 271.99 L 258.75 271.99 L 260.12 271.99 L 261.50 271.99 L 262.87 271.99 L 264.24 271.99 L 265.62 271.99 L 266.99 271.99 L 268.36 271.99 L 269.74 271.99 L 271.11 271.99 L 272.48 271.99 L 273.86 271.99 L 275.23 271.99 L 276.60 271.99 L 277.98 271.99 L 279.35 271.99 L 280.72 271.99 L 282.10 272.00 L 283.47 272.00 L 284.84 272.00 L 286.22 272.00 L 287.59 272.00 L 288.97 272.00 L 290.34 272.00 L 291.71 272.00 L 293.09 272.00 L 294.46 272.00 L 295.83 272.00 L 297.21 272.00 L 298.58 272.00 L 299.95 272.00 L 301.33 272.00 L 302.70 272.00 L 304.07 272.00 L 305.45 272.00 L 306.82 272.00 L 308.19 272.00 L 309.57 272.00 L 310.94 272.00 L 312.31 272.00 L 313.69 272.00 L 315.06 272.00 L 316.43 272.00 L 317.81 272.00 L 319.18 272.00 L 320.56 272.00 L 321.93 272.00 L 323.30 272.00 L 324.68 272.00 L 326.05 272.00 L 327.42 272.00 L 328.80 272.00 L 330.17 272.00 L 331.54 272.00 L 332.92 272.00 L 334.29 272.00 L 335.66 272.00 L 337.04 272.00 L 338.41 272.00 L 339.78 272.00 L 341.16 272.00 L 342.53 272.00 L 343.90 272.00 L 345.28 272.00 L 346.65 272.00 L 348.02 272.00 L 349.40 272.00 L 350.77 272.00 L 352.14 272.00 L 353.52 272.00 L 354.89 272.00 L 356.27 272.00 L 357.64 272.00 L 359.01 272.00 L 360.39 272.00 L 361.76 272.00 L 363.13 272.00 L 364.51 272.00 L 365.88 272.00 L 367.25 272.00 L 368.63 272.00 L 370.00 272.00"/>
<path fill="#9558B2" fill-opacity="0.2" d="M 40.37 272.00 L 41.74 272.00 L 43.11 272.00 L 44.49 272.00 L 45.86 272.00 L 47.23 272.00 L 48.61 272.00 L 49.98 272.00 L 51.35 272.00 L 52.73 272.00 L 54.10 272.00 L 55.47 272.00 L 56.85 272.00 L 58.22 272.00 L 59.60 272.00 L 60.97 272.00 L 62.34 272.00 L 63.72 272.00 L 65.09 272.00 L 66.46 272.00 L 67.84 272.00 L 69.21 272.00 L 70.58 272.00 L 71.96 272.00 L 73.33 272.00 L 74.70 272.00 L 76.08 272.00 L 77.45 272.00 L 78.82 272.00 L 80.20 272.00 L 81.57 272.00 L 82.94 272.00 L 84.32 272.00 L 85.69 272.00 L 87.06 272.00 L 88.44 272.00 L 89.81 272.00 L 91.19 272.00 L 92.56 272.00 L 93.93 272.00 L 95.31 272.00 L 96.68 272.00 L 98.05 272.00 L 99.43 272.00 L 100.80 272.00 L 102.17 272.00 L 103.55 272.00 L 104.92 272.00 L 106.29 272.00 L 107.67 272.00 L 109.04 272.00 L 110.41 272.00 L 111.79 272.00 L 113.16 272.00 L 114.53 272.00 L 115.91 272.00 L 117.28 272.00 L 118.65 272.00 L 120.03 272.00 L 121.40 272.00 L 122.77 272.00 L 124.15 272.00 L 125.52 272.00 L 126.90 272.00 L 128.27 271.99 L 129.64 271.95 L 131.02 271.85 L 132.39 271.59 L 133.76 271.09 L 135.14 270.21 L 136.51 268.84 L 137.88 266.86 L 139.26 264.20 L 140.63 260.79 L 142.00 256.64 L 143.38 251.76 L 144.75 246.21 L 146.12 240.09 L 147.50 233.49 L 148.87 226.55 L 150.24 219.38 L 151.62 212.11 L 152.99 204.86 L 154.36 197.73 L 155.74 190.84 L 157.11 184.27 L 158.49 178.09 L 159.86 172.35 L 161.23 167.11 L 162.61 162.39 L 163.98 158.22 L 165.35 154.60 L 166.73 151.53 L 168.10 149.02 L 169.47 147.03 L 170.85 145.56 L 172.22 144.58 L 173.59 144.06 L 174.97 143.97 L 176.34 144.28 L 177.71 144.97 L 179.09 145.99 L 180.46 147.31 L 181.83 148.91 L 183.21 150.75 L 184.58 152.81 L 185.95 155.05 L 187.33 157.46 L 188.70 160.00 L 190.08 162.65 L 191.45 165.40 L 192.82 168.21 L 194.20 171.08 L 195.57 173.99 L 196.94 176.92 L 198.32 179.85 L 199.69 182.79 L 201.06 185.71 L 202.44 188.61 L 203.81 191.47 L 205.18 194.30 L 206.56 197.08 L 207.93 199.81 L 209.30 202.49 L 210.68 205.10 L 212.05 207.65 L 213.42 210.14 L 214.80 212.56 L 216.17 214.92 L 217.54 217.20 L 218.92 219.42 L 220.29 221.56 L 221.66 223.64 L 223.04 225.64 L 224.41 227.58 L 225.79 229.44 L 227.16 231.24 L 228.53 232.98 L 229.91 234.65 L 231.28 236.26 L 232.65 237.80 L 234.03 239.29 L 235.40 240.71 L 236.77 242.08 L 238.15 243.39 L 239.52 244.65 L 240.89 245.86 L 242.27 247.02 L 243.64 248.13 L 245.01 249.19 L 246.39 250.21 L 247.76 251.19 L 249.13 252.12 L 250.51 253.01 L 251.88 253.86 L 253.25 254.68 L 254.63 255.46 L 256.00 256.20 L 257.38 256.92 L 258.75 257.60 L 260.12 258.25 L 261.50 258.87 L 262.87 259.46 L 264.24 260.03 L 265.62 260.57 L 266.99 261.09 L 268.36 261.58 L 269.74 262.05 L 271.11 262.50 L 272.48 262.93 L 273.86 263.34 L 275.23 263.73 L 276.60 264.11 L 277.98 264.46 L 279.35 264.80 L 280.72 265.13 L 282.10 265.44 L 283.47 265.73 L 284.84 266.01 L 286.22 266.28 L 287.59 266.54 L 288.97 266.79 L 290.34 267.02 L 291.71 267.24 L 293.09 267.45 L 294.46 267.66 L 295.83 267.85 L 297.21 268.04 L 298.58 268.21 L 299.95 268.38 L 301.33 268.54 L 302.70 268.70 L 304.07 268.84 L 305.45 268.98 L 306.82 269.12 L 308.19 269.24 L 309.57 269.36 L 310.94 269.48 L 312.31 269.59 L 313.69 269.70 L 315.06 269.80 L 316.43 269.89 L 317.81 269.99 L 319.18 270.07 L 320.56 270.16 L 321.93 270.24 L 323.30 270.31 L 324.68 270.39 L 326.05 270.46 L 327.42 270.52 L 328.80 270.59 L 330.17 270.65 L 331.54 270.71 L 332.92 270.76 L 334.29 270.81 L 335.66 270.87 L 337.04 270.91 L 338.41 270.96 L 339.78 271.00 L 341.16 271.05 L 342.53 271.09 L 343.90 271.13 L 345.28 271.16 L 346.65 271.20 L 348.02 271.23 L 349.40 271.26 L 350.77 271.29 L 352.14 271.32 L 353.52 271.35 L 354.89 271.38 L 356.27 271.41 L 357.64 271.43 L 359.01 271.45 L 360.39 271.48 L 361.76 271.50 L 363.13 271.52 L 364.51 271.54 L 365.88 271.56 L 367.25 271.58 L 368.63 271.59 L 370.00 271.61 L 370.00 272.00 L 40.37 272.00 Z"/>
<path fill="none" stroke="#9558B2" stroke-width="3" d="M 40.37 272.00 L 41.74 272.00 L 43.11 272.00 L 44.49 272.00 L 45.86 272.00 L 47.23 272.00 L 48.61 272.00 L 49.98 272.00 L 51.35 272.00 L 52.73 272.00 L 54.10 272.00 L 55.47 272.00 L 56.85 272.00 L 58.22 272.00 L 59.60 272.00 L 60.97 272.00 L 62.34 272.00 L 63.72 272.00 L 65.09 272.00 L 66.46 272.00 L 67.84 272.00 L 69.21 272.00 L 70.58 272.00 L 71.96 272.00 L 73.33 272.00 L 74.70 272.00 L 76.08 272.00 L 77.45 272.00 L 78.82 272.00 L 80.20 272.00 L 81.57 272.00 L 82.94 272.00 L 84.32 272.00 L 85.69 272.00 L 87.06 272.00 L 88.44 272.00 L 89.81 272.00 L 91.19 272.00 L 92.56 272.00 L 93.93 272.00 L 95.31 272.00 L 96.68 272.00 L 98.05 272.00 L 99.43 272.00 L 100.80 272.00 L 102.17 272.00 L 103.55 272.00 L 104.92 272.00 L 106.29 272.00 L 107.67 272.00 L 109.04 272.00 L 110.41 272.00 L 111.79 272.00 L 113.16 272.00 L 114.53 272.00 L 115.91 272.00 L 117.28 272.00 L 118.65 272.00 L 120.03 272.00 L 121.40 272.00 L 122.77 272.00 L 124.15 272.00 L 125.52 272.00 L 126.90 272.00 L 128.27 271.99 L 129.64 271.95 L 131.02 271.85 L 132.39 271.59 L 133.76 271.09 L 135.14 270.21 L 136.51 268.84 L 137.88 266.86 L 139.26 264.20 L 140.63 260.79 L 142.00 256.64 L 143.38 251.76 L 144.75 246.21 L 146.12 240.09 L 147.50 233.49 L 148.87 226.55 L 150.24 219.38 L 151.62 212.11 L 152.99 204.86 L 154.36 197.73 L 155.74 190.84 L 157.11 184.27 L 158.49 178.09 L 159.86 172.35 L 161.23 167.11 L 162.61 162.39 L 163.98 158.22 L 165.35 154.60 L 166.73 151.53 L 168.10 149.02 L 169.47 147.03 L 170.85 145.56 L 172.22 144.58 L 173.59 144.06 L 174.97 143.97 L 176.34 144.28 L 177.71 144.97 L 179.09 145.99 L 180.46 147.31 L 181.83 148.91 L 183.21 150.75 L 184.58 152.81 L 185.95 155.05 L 187.33 157.46 L 188.70 160.00 L 190.08 162.65 L 191.45 165.40 L 192.82 168.21 L 194.20 171.08 L 195.57 173.99 L 196.94 176.92 L 198.32 179.85 L 199.69 182.79 L 201.06 185.71 L 202.44 188.61 L 203.81 191.47 L 205.18 194.30 L 206.56 197.08 L 207.93 199.81 L 209.30 202.49 L 210.68 205.10 L 212.05 207.65 L 213.42 210.14 L 214.80 212.56 L 216.17 214.92 L 217.54 217.20 L 218.92 219.42 L 220.29 221.56 L 221.66 223.64 L 223.04 225.64 L 224.41 227.58 L 225.79 229.44 L 227.16 231.24 L 228.53 232.98 L 229.91 234.65 L 231.28 236.26 L 232.65 237.80 L 234.03 239.29 L 235.40 240.71 L 236.77 242.08 L 238.15 243.39 L 239.52 244.65 L 240.89 245.86 L 242.27 247.02 L 243.64 248.13 L 245.01 249.19 L 246.39 250.21 L 247.76 251.19 L 249.13 252.12 L 250.51 253.01 L 251.88 253.86 L 253.25 254.68 L 254.63 255.46 L 256.00 256.20 L 257.38 256.92 L 258.75 257.60 L 260.12 258.25 L 261.50 258.87 L 262.87 259.46 L 264.24 260.03 L 265.62 260.57 L 266.99 261.09 L 268.36 261.58 L 269.74 262.05 L 271.11 262.50 L 272.48 262.93 L 273.86 263.34 L 275.23 263.73 L 276.60 264.11 L 277.98 264.46 L 279.35 264.80 L 280.72 265.13 L 282.10 265.44 L 283.47 265.73 L 284.84 266.01 L 286.22 266.28 L 287.59 266.54 L 288.97 266.79 L 290.34 267.02 L 291.71 267.24 L 293.09 267.45 L 294.46 267.66 L 295.83 267.85 L 297.21 268.04 L 298.58 268.21 L 299.95 268.38 L 301.33 268.54 L 302.70 268.70 L 304.07 268.84 L 305.45 268.98 L 306.82 269.12 L 308.19 269.24 L 309.57 269.36 L 310.94 269.48 L 312.31 269.59 L 313.69 269.70 L 315.06 269.80 L 316.43 269.89 L 317.81 269.99 L 319.18 270.07 L 320.56 270.16 L 321.93 270.24 L 323.30 270.31 L 324.68 270.39 L 326.05 270.46 L 327.42 270.52 L 328.80 270.59 L 330.17 270.65 L 331.54 270.71 L 332.92 270.76 L 334.29 270.81 L 335.66 270.87 L 337.04 270.91 L 338.41 270.96 L 339.78 271.00 L 341.16 271.05 L 342.53 271.09 L 343.90 271.13 L 345.28 271.16 L 346.65 271.20 L 348.02 271.23 L 349.40 271.26 L 350.77 271.29 L 352.14 271.32 L 353.52 271.35 L 354.89 271.38 L 356.27 271.41 L 357.64 271.43 L 359.01 271.45 L 360.39 271.48 L 361.76 271.50 L 363.13 271.52 L 364.51 271.54 L 365.88 271.56 L 367.25 271.58 L 368.63 271.59 L 370.00 271.61"/>
<path fill="none" stroke="#808080" stroke-width="3" stroke-dasharray="3 6"
      d="M 81.95 92 Q 122.26 44 164.57 118"/>
<path fill="#808080" d="M 164.57 130 l -8 -14 l 14 3 z"/>
<circle cx="69.95" cy="272.0" r="7"
        fill="#389826" stroke="black" stroke-width="1"/>
<circle cx="174.57" cy="272.0" r="7"
        fill="#9558B2" stroke="black" stroke-width="1"/>
<circle cx="174.57"
        cy="142.95" r="5"
        fill="#CB3C33" stroke="black" stroke-width="1"/>
</svg>
